<svg width="165" height="165" viewBox="0 0 165 165" fill="none" xmlns="http://www.w3.org/2000/svg">
<circle cx="82.5" cy="82.5" r="82.5" fill="white"/>
<path d="M84.9379 80.6814C89.3991 76.2103 89.4016 68.9636 84.9435 64.4955C80.4853 60.0274 73.2548 60.0299 68.7936 64.501C64.3324 68.9722 64.3299 76.2189 68.788 80.687C73.2462 85.1551 80.4767 85.1526 84.9379 80.6814Z" fill="#D35F3D"/>
<path d="M77.8212 12.68C86.1822 15.3398 92.9741 19.4903 98.0083 25.0147C102.662 30.1216 105.776 36.3189 107.267 43.4348C108.735 50.4483 108.292 56.5227 107.745 59.4945C107.541 60.6007 106.886 63.4354 105.783 63.5378C104.679 63.6402 103.851 61.1459 103.27 59.6001C101.066 53.7305 95.1044 47.1898 86.396 44.3755C81.4561 42.7793 76.2836 42.3933 71.4365 43.2568C65.8976 44.2447 60.8854 46.8006 56.5399 50.8549C51.7761 55.3 48.9461 60.5628 48.1317 66.497C47.4101 71.7488 48.3346 77.204 50.8076 82.2715C53.0354 86.8394 56.4141 90.7504 60.3194 93.281C64.2924 95.8573 68.5704 96.8909 72.7068 96.2811C79.788 94.1145 86.4384 92.1134 91.971 90.8134C98.4846 89.2834 105.597 90.0492 111.998 92.9674C116.015 94.8 119.343 97.3353 121.401 100.03C124.567 99.1064 127.575 98.5312 130.642 98.276C138.514 97.6221 146.377 99.1426 157.162 102.54C157.22 102.322 157.277 102.107 157.332 101.888C158.915 95.706 159.756 89.2282 159.756 82.5519C159.756 39.7209 125.113 5 82.3774 5C73.853 5 65.6508 6.3819 57.98 8.93299C57.7017 9.02595 57.4235 9.12049 57.1467 9.21661C64.8615 9.59951 71.7824 10.7545 77.8243 12.6769L77.8212 12.68ZM92.8247 72.9511C92.6376 81.4726 85.7246 88.3994 77.2238 88.5869C68.138 88.7886 60.7046 81.3371 60.9043 72.231C61.0914 63.7095 68.0044 56.7827 76.5053 56.5952C85.591 56.3935 93.0259 63.8451 92.8247 72.9511Z" fill="#E996AE"/>
<path d="M131.016 102.819C122.06 103.562 113.335 107.445 98.3147 115.327L98.2832 115.342C85.6553 121.716 71.9583 127.983 57.3683 130.644C53.0337 131.438 48.5624 131.84 44.1492 131.84C41.4529 131.84 38.7786 131.691 36.1671 131.391C29.9161 130.671 24.0989 129.135 18.8273 126.814C19.0144 127.085 19.2047 127.353 19.3949 127.62C33.4299 147.289 56.4092 160.107 82.3757 160.107C116.23 160.107 145.006 138.318 155.505 107.968C155.628 107.615 155.746 107.262 155.862 106.908C145.611 103.674 138.211 102.222 131.016 102.819Z" fill="#262656"/>
<path d="M8.45558 105.549C11.427 105.95 14.4268 106.238 17.4454 106.408C25.1115 106.841 32.6187 106.481 39.1575 105.363C45.8299 104.224 53.9865 101.946 62.3459 99.4388C60.8177 98.8337 59.3147 98.0553 57.851 97.1051C53.2617 94.1302 49.3108 89.5716 46.7245 84.2709C43.8553 78.3872 42.7846 72.026 43.6304 65.8745C44.5785 58.9728 47.9729 52.6259 53.4441 47.5205C58.4406 42.858 64.2263 39.9146 70.6408 38.7706C76.2159 37.7763 82.1462 38.2159 87.7904 40.039C93.7773 41.974 98.9798 45.2941 102.607 49.2586C102.935 49.6178 103.534 49.3547 103.489 48.8678C102.907 42.6405 100.777 34.8029 94.6546 28.0841C90.1644 23.1568 84.0391 19.4334 76.4486 17.0194C69.0415 14.6631 60.1655 13.5304 49.996 13.6364C47.8368 13.659 45.7101 14.2078 43.8411 15.2893C20.6291 28.6766 4.99988 53.7856 4.99988 82.5534C4.99988 90.1673 6.09413 97.5243 8.13485 104.476C8.24018 104.834 8.34867 105.192 8.45872 105.548L8.45558 105.549Z" fill="#262656"/>
<path d="M56.5506 126.165C70.57 123.607 83.9022 117.503 96.222 111.284C104.545 106.916 111.024 103.733 116.742 101.591C115.231 100.047 113.013 98.4383 110.114 97.1163C106.933 95.6651 100.483 93.4937 93.0069 95.2506C87.0561 96.6483 79.6699 98.9126 71.8482 101.309C60.6399 104.744 49.0497 108.296 39.9199 109.854C34.9282 110.707 29.4113 111.142 23.6979 111.142C21.5503 111.142 19.3744 111.08 17.189 110.957C14.8181 110.823 12.4583 110.619 10.1125 110.348C10.188 110.546 10.2651 110.745 10.3421 110.943C11.4851 113.852 12.7994 116.674 14.271 119.4C15.4816 120.076 16.7142 120.738 17.972 121.365L18.0019 121.381C28.7683 126.94 42.8175 128.684 56.5491 126.168L56.5506 126.165Z" fill="#262656"/>
</svg>
