<svg width="604" height="180" viewBox="0 0 604 180" fill="none" xmlns="http://www.w3.org/2000/svg">
<path d="M115.058 86.7344C118.361 83.4392 118.362 78.0984 115.062 74.8055C111.761 71.5125 106.408 71.5144 103.105 74.8096C99.8022 78.1048 99.8003 83.4456 103.101 86.7385C106.402 90.0315 111.755 90.0297 115.058 86.7344Z" fill="white"/>
<path d="M109.789 36.6179C115.979 38.5782 121.007 41.637 124.734 45.7085C128.18 49.4722 130.486 54.0396 131.589 59.284C132.676 64.4529 132.348 68.9296 131.943 71.1198C131.792 71.9351 131.307 74.0242 130.49 74.0997C129.673 74.1752 129.06 72.3369 128.63 71.1976C126.998 66.8718 122.584 62.0513 116.137 59.9772C112.48 58.8009 108.65 58.5163 105.062 59.1527C100.961 59.8809 97.2499 61.7645 94.0326 64.7525C90.5057 68.0285 88.4105 71.9072 87.8075 76.2806C87.2733 80.1512 87.9577 84.1716 89.7887 87.9063C91.4381 91.2729 93.9395 94.1552 96.8309 96.0202C99.7723 97.9189 102.94 98.6807 106.002 98.2313C111.245 96.6345 116.168 95.1597 120.265 94.2016C125.087 93.074 130.353 93.6384 135.092 95.7891C138.066 97.1397 140.53 99.0082 142.053 100.994C144.398 100.313 146.625 99.8896 148.895 99.7015C154.724 99.2196 160.545 100.34 168.53 102.844C168.573 102.684 168.615 102.525 168.656 102.363C169.828 97.8074 170.45 93.0334 170.45 88.113C170.45 56.5468 144.802 30.9578 113.162 30.9578C106.851 30.9578 100.778 31.9762 95.0988 33.8563C94.8928 33.9249 94.6868 33.9945 94.4819 34.0654C100.194 34.3476 105.318 35.1988 109.791 36.6156L109.789 36.6179ZM120.897 81.0372C120.758 87.3175 115.64 92.4225 109.346 92.5607C102.619 92.7094 97.1161 87.2176 97.2639 80.5065C97.4024 74.2263 102.521 69.1213 108.814 68.9831C115.541 68.8344 121.046 74.3261 120.897 81.0372Z" fill="white"/>
<path d="M149.173 103.049C142.541 103.598 136.082 106.459 124.961 112.268L124.938 112.279C115.589 116.977 105.448 121.595 94.6461 123.557C91.437 124.142 88.1266 124.438 84.8592 124.438C82.863 124.438 80.883 124.328 78.9496 124.107C74.3215 123.576 70.0147 122.444 66.1118 120.734C66.2503 120.933 66.3912 121.131 66.532 121.328C76.9231 135.823 93.9361 145.27 113.161 145.27C138.225 145.27 159.53 129.212 167.303 106.845C167.394 106.584 167.481 106.324 167.567 106.063C159.978 103.68 154.499 102.609 149.173 103.049Z" fill="white"/>
<path d="M58.4329 105.062C60.6328 105.357 62.8537 105.57 65.0886 105.695C70.7643 106.014 76.3224 105.748 81.1635 104.925C86.1035 104.085 92.1423 102.406 98.3313 100.559C97.1999 100.113 96.0871 99.539 95.0034 98.8387C91.6057 96.6462 88.6806 93.2866 86.7658 89.38C84.6415 85.0437 83.8488 80.3556 84.4751 75.8219C85.1769 70.7355 87.69 66.0578 91.7408 62.2952C95.4399 58.859 99.7235 56.6897 104.473 55.8466C108.6 55.1138 112.991 55.4378 117.17 56.7814C121.602 58.2075 125.454 60.6543 128.139 63.5761C128.382 63.8409 128.826 63.647 128.792 63.2881C128.361 58.6987 126.784 52.9224 122.252 47.9707C118.927 44.3394 114.392 41.5952 108.772 39.8161C103.288 38.0793 96.7155 37.2446 89.1853 37.3229C87.5883 37.3395 86.015 37.7438 84.631 38.541C67.4457 48.4074 55.8744 66.9125 55.8744 88.1142C55.8744 93.7255 56.6845 99.1476 58.1954 104.271C58.2734 104.535 58.3537 104.798 58.4352 105.061L58.4329 105.062Z" fill="white"/>
<path d="M94.0408 120.255C104.42 118.37 114.291 113.871 123.412 109.288C129.574 106.069 134.371 103.723 138.605 102.145C137.486 101.007 135.844 99.821 133.697 98.8467C131.342 97.7772 126.566 96.1769 121.032 97.4718C116.626 98.5018 111.157 100.171 105.366 101.937C97.0683 104.469 88.4873 107.086 81.728 108.235C78.0323 108.863 73.9478 109.183 69.7178 109.183C68.1278 109.183 66.5168 109.138 64.8988 109.047C63.1435 108.949 61.3964 108.798 59.6597 108.598C59.7155 108.744 59.7726 108.891 59.8296 109.037C60.6758 111.181 61.6489 113.261 62.7385 115.27C63.6347 115.768 64.5473 116.256 65.4785 116.718L65.5006 116.729C73.4717 120.826 83.8732 122.112 94.0396 120.257L94.0408 120.255Z" fill="white"/>
<path d="M215.155 71.4473C217.327 70.1722 219.739 69.5334 222.394 69.5334V82.6049H218.992C215.902 82.6049 213.586 83.2669 212.042 84.5907C210.498 85.9158 209.726 88.2372 209.726 91.5596V110.263H197.348V69.9666H209.726V76.6824C211.174 74.4689 212.983 72.7223 215.155 71.4461V71.4473Z" fill="white"/>
<path d="M229.234 63.8641C227.858 62.589 227.171 61.012 227.171 59.1342C227.171 57.2564 227.859 55.6085 229.234 54.3323C230.609 53.0572 232.382 52.4185 234.554 52.4185C236.726 52.4185 238.427 53.0572 239.803 54.3323C241.179 55.6085 241.865 57.2099 241.865 59.1342C241.865 61.0585 241.177 62.589 239.803 63.8641C238.427 65.1404 236.677 65.7779 234.554 65.7779C232.431 65.7779 230.609 65.1404 229.234 63.8641ZM240.706 69.9667V110.263H228.328V69.9667H240.706Z" fill="white"/>
<path d="M267.054 71.122C269.177 69.9666 271.663 69.3894 274.51 69.3894C277.84 69.3894 280.855 70.2325 283.558 71.9175C286.259 73.6037 288.395 76.0099 289.964 79.1396C291.532 82.2693 292.317 85.9041 292.317 90.0441C292.317 94.1841 291.532 97.8317 289.964 100.985C288.395 104.139 286.26 106.57 283.558 108.279C280.855 109.988 277.839 110.843 274.51 110.843C271.71 110.843 269.237 110.266 267.09 109.11C264.943 107.955 263.266 106.462 262.06 104.632V129.475H249.682V69.9677H262.06V75.6731C263.266 73.7953 264.93 72.2787 267.054 71.1232V71.122ZM277.152 82.7849C275.439 81.0279 273.327 80.1488 270.819 80.1488C268.31 80.1488 266.27 81.0406 264.558 82.8209C262.844 84.6023 261.987 87.034 261.987 90.115C261.987 93.1959 262.844 95.6288 264.558 97.409C266.27 99.1904 268.358 100.081 270.819 100.081C273.279 100.081 275.379 99.1788 277.116 97.373C278.853 95.5672 279.722 93.125 279.722 90.0429C279.722 86.9609 278.864 84.5431 277.152 82.7849Z" fill="white"/>
<path d="M316.203 71.122C318.326 69.9666 320.811 69.3894 323.658 69.3894C326.989 69.3894 330.003 70.2325 332.706 71.9175C335.408 73.6037 337.544 76.0099 339.113 79.1396C340.681 82.2693 341.465 85.9041 341.465 90.0441C341.465 94.1841 340.681 97.8317 339.113 100.985C337.544 104.139 335.409 106.57 332.706 108.279C330.003 109.988 326.988 110.843 323.658 110.843C320.859 110.843 318.386 110.266 316.239 109.11C314.092 107.955 312.414 106.462 311.208 104.632V129.475H298.83V69.9677H311.208V75.6731C312.414 73.7953 314.079 72.2787 316.203 71.1232V71.122ZM326.301 82.7849C324.587 81.0279 322.476 80.1488 319.967 80.1488C317.459 80.1488 315.419 81.0406 313.706 82.8209C311.993 84.6023 311.136 87.034 311.136 90.115C311.136 93.1959 311.993 95.6288 313.706 97.409C315.419 99.1904 317.507 100.081 319.967 100.081C322.428 100.081 324.528 99.1788 326.265 97.373C328.001 95.5672 328.871 93.125 328.871 90.0429C328.871 86.9609 328.013 84.5431 326.301 82.7849Z" fill="white"/>
<path d="M360.357 56.8232V110.264H347.979V56.8232H360.357Z" fill="white"/>
<path d="M407.191 93.0764H379.178C379.37 95.5802 380.179 97.494 381.603 98.8178C383.025 100.143 384.776 100.804 386.851 100.804C389.939 100.804 392.087 99.5042 393.294 96.904H406.468C405.792 99.5518 404.573 101.936 402.813 104.053C401.051 106.172 398.843 107.833 396.19 109.036C393.535 110.24 390.568 110.842 387.286 110.842C383.329 110.842 379.805 110 376.718 108.314C373.629 106.629 371.217 104.222 369.479 101.092C367.743 97.962 366.873 94.3027 366.873 90.1151C366.873 85.9275 367.73 82.2683 369.443 79.1386C371.156 76.0101 373.557 73.6028 376.646 71.9166C379.734 70.2315 383.281 69.3884 387.286 69.3884C391.292 69.3884 394.67 70.2071 397.71 71.8434C400.75 73.4808 403.126 75.815 404.839 78.8483C406.552 81.8816 407.41 85.42 407.41 89.4637C407.41 90.6191 407.337 91.8234 407.192 93.0741L407.191 93.0764ZM394.741 86.2155C394.741 84.0973 394.017 82.4123 392.569 81.1604C391.121 79.9086 389.312 79.2826 387.14 79.2826C384.968 79.2826 383.315 79.8853 381.891 81.0884C380.468 82.2927 379.586 84.0021 379.249 86.2155H394.739H394.741Z" fill="white"/>
<path d="M436.434 99.792V110.263H430.137C425.648 110.263 422.149 109.168 419.641 106.978C417.131 104.788 415.876 101.213 415.876 96.2535V80.2219H410.954V69.9665H415.876V60.1455H428.254V69.9665H436.362V80.2219H428.254V96.3987C428.254 97.6029 428.544 98.4692 429.123 98.9988C429.702 99.5295 430.666 99.7931 432.019 99.7931H436.434V99.792Z" fill="white"/>
<path d="M460.576 69.9666L453.709 110.263H441.331L448.198 69.9666H460.576Z" fill="white"/>
<path d="M464.555 79.1386C466.123 76.0101 468.258 73.6027 470.962 71.9165C473.663 70.2315 476.68 69.3884 480.01 69.3884C482.662 69.3884 485.088 69.9423 487.285 71.049C489.48 72.1569 491.205 73.6492 492.46 75.527V56.8232H504.838V110.264H492.46V104.486C491.301 106.413 489.647 107.953 487.501 109.108C485.353 110.264 482.856 110.841 480.01 110.841C476.679 110.841 473.663 109.986 470.962 108.277C468.259 106.568 466.123 104.137 464.555 100.982C462.986 97.8296 462.203 94.1831 462.203 90.042C462.203 85.9008 462.986 82.2671 464.555 79.1374V79.1386ZM489.89 82.821C488.176 81.0408 486.089 80.1489 483.628 80.1489C481.168 80.1489 479.079 81.028 477.367 82.785C475.654 84.5432 474.797 86.9622 474.797 90.0431C474.797 93.124 475.654 95.5674 477.367 97.3732C479.079 99.179 481.168 100.081 483.628 100.081C486.089 100.081 488.176 99.1906 489.89 97.4092C491.602 95.6289 492.46 93.1972 492.46 90.1151C492.46 87.033 491.602 84.6025 489.89 82.821Z" fill="white"/>
<path d="M551.669 93.0764H523.656C523.848 95.5802 524.657 97.494 526.081 98.8178C527.503 100.143 529.254 100.804 531.329 100.804C534.417 100.804 536.565 99.5042 537.772 96.904H550.946C550.27 99.5518 549.051 101.936 547.291 104.053C545.529 106.172 543.321 107.833 540.668 109.036C538.013 110.24 535.046 110.842 531.764 110.842C527.807 110.842 524.283 110 521.196 108.314C518.107 106.629 515.695 104.222 513.958 101.092C512.221 97.962 511.351 94.3027 511.351 90.1151C511.351 85.9275 512.208 82.2683 513.921 79.1386C515.634 76.0101 518.035 73.6028 521.124 71.9166C524.212 70.2315 527.759 69.3884 531.764 69.3884C535.77 69.3884 539.148 70.2071 542.188 71.8434C545.228 73.4808 547.604 75.815 549.318 78.8483C551.03 81.8816 551.888 85.42 551.888 89.4637C551.888 90.6191 551.816 91.8234 551.67 93.0741L551.669 93.0764ZM539.219 86.2155C539.219 84.0973 538.495 82.4123 537.047 81.1604C535.599 79.9086 533.79 79.2826 531.618 79.2826C529.446 79.2826 527.793 79.8853 526.369 81.0884C524.946 82.2927 524.065 84.0021 523.727 86.2155H539.218H539.219Z" fill="white"/>
<path d="M455.59 65.7291C459.64 65.7291 462.923 62.7395 462.923 59.0517C462.923 55.3639 459.64 52.3743 455.59 52.3743C451.54 52.3743 448.257 55.3639 448.257 59.0517C448.257 62.7395 451.54 65.7291 455.59 65.7291Z" fill="white"/>
</svg>
