<svg width="604" height="180" viewBox="0 0 604 180" fill="none" xmlns="http://www.w3.org/2000/svg">
<g clip-path="url(#clip0_202_651)">
<circle cx="112.5" cy="86.5" r="59.5" fill="white"/>
<path d="M114.258 85.1885C117.476 81.9638 117.478 76.7374 114.262 73.515C111.047 70.2925 105.832 70.2943 102.615 73.519C99.3973 76.7437 99.3955 81.9701 102.611 85.1925C105.826 88.4149 111.041 88.4132 114.258 85.1885Z" fill="#D35F3D"/>
<path d="M109.126 36.145C115.156 38.0633 120.054 41.0567 123.685 45.041C127.041 48.7241 129.287 53.1937 130.362 58.3258C131.421 63.384 131.101 67.7649 130.707 69.9082C130.559 70.706 130.088 72.7504 129.292 72.8243C128.496 72.8981 127.898 71.0992 127.48 69.9843C125.89 65.7512 121.59 61.0339 115.31 59.0042C111.747 57.853 108.017 57.5746 104.521 58.1974C100.526 58.9099 96.9113 60.7532 93.7772 63.6772C90.3415 66.883 88.3005 70.6787 87.7131 74.9585C87.1927 78.7462 87.8594 82.6805 89.643 86.3352C91.2497 89.6297 93.6865 92.4503 96.5031 94.2754C99.3684 96.1335 102.454 96.879 105.437 96.4392C110.544 94.8766 115.34 93.4333 119.331 92.4958C124.028 91.3923 129.158 91.9446 133.774 94.0493C136.671 95.3709 139.072 97.1994 140.556 99.1427C142.839 98.4768 145.009 98.062 147.221 97.8779C152.898 97.4063 158.569 98.5029 166.347 100.953C166.389 100.796 166.43 100.641 166.47 100.483C167.612 96.0244 168.218 91.3525 168.218 86.5375C168.218 55.6472 143.233 30.6061 112.412 30.6061C106.264 30.6061 100.348 31.6028 94.8158 33.4426C94.6151 33.5097 94.4144 33.5779 94.2149 33.6472C99.7789 33.9233 104.77 34.7563 109.128 36.1428L109.126 36.145ZM119.946 79.6133C119.811 85.759 114.826 90.7548 108.695 90.89C102.142 91.0355 96.7809 85.6613 96.9249 79.0939C97.0598 72.9481 102.046 67.9524 108.176 67.8172C114.729 67.6717 120.091 73.0459 119.946 79.6133Z" fill="#E996AE"/>
<path d="M147.491 101.154C141.031 101.69 134.739 104.491 123.906 110.175L123.883 110.186C114.776 114.783 104.897 119.303 94.3748 121.222C91.2487 121.795 88.0239 122.085 84.8411 122.085C82.8964 122.085 80.9677 121.977 79.0843 121.761C74.5759 121.242 70.3805 120.134 66.5786 118.46C66.7135 118.655 66.8508 118.848 66.988 119.041C77.1102 133.226 93.6831 142.471 112.41 142.471C136.827 142.471 157.58 126.757 165.152 104.868C165.241 104.613 165.326 104.359 165.41 104.103C158.017 101.771 152.679 100.723 147.491 101.154Z" fill="#262656"/>
<path d="M59.0982 103.124C61.2413 103.412 63.4048 103.62 65.5818 103.743C71.1107 104.055 76.525 103.795 81.2409 102.989C86.0531 102.168 91.9357 100.525 97.9646 98.7165C96.8625 98.2801 95.7785 97.7187 94.7228 97.0335C91.413 94.8879 88.5635 91.6002 86.6983 87.7773C84.6289 83.5339 83.8567 78.9461 84.4668 74.5095C85.1505 69.532 87.5986 64.9545 91.5445 61.2725C95.148 57.9098 99.3208 55.7869 103.947 54.9619C107.968 54.2448 112.245 54.5619 116.315 55.8767C120.633 57.2722 124.385 59.6667 127.001 62.5259C127.238 62.785 127.67 62.5952 127.637 62.2441C127.218 57.7529 125.681 52.1004 121.266 47.2547C118.028 43.7011 113.61 41.0157 108.136 39.2747C102.794 37.5753 96.3921 36.7584 89.0577 36.8348C87.5005 36.8511 85.9667 37.2469 84.6187 38.0269C67.878 47.682 56.606 65.7909 56.606 86.5386C56.606 92.0298 57.3951 97.3357 58.8669 102.35C58.9429 102.608 59.0211 102.866 59.1005 103.122L59.0982 103.124Z" fill="#262656"/>
<path d="M93.7849 117.991C103.896 116.147 113.511 111.745 122.396 107.259C128.399 104.109 133.072 101.813 137.196 100.269C136.106 99.1552 134.506 97.9949 132.415 97.0415C130.122 95.9948 125.469 94.4288 120.078 95.6959C115.786 96.7039 110.459 98.337 104.818 100.065C96.7342 102.543 88.3751 105.104 81.7906 106.228C78.1905 106.843 74.2117 107.157 70.0912 107.157C68.5423 107.157 66.973 107.112 65.3969 107.024C63.6869 106.927 61.985 106.779 60.2932 106.584C60.3476 106.727 60.4032 106.87 60.4588 107.014C61.2831 109.111 62.231 111.147 63.2924 113.113C64.1654 113.6 65.0544 114.078 65.9615 114.53L65.9831 114.541C73.748 118.551 83.8804 119.809 93.7838 117.994L93.7849 117.991Z" fill="#262656"/>
<path d="M215.155 71.4473C217.327 70.1722 219.739 69.5334 222.394 69.5334V82.6049H218.992C215.902 82.6049 213.586 83.2669 212.042 84.5907C210.498 85.9158 209.726 88.2372 209.726 91.5596V110.263H197.348V69.9666H209.726V76.6824C211.174 74.4689 212.983 72.7223 215.155 71.4461V71.4473Z" fill="#262656"/>
<path d="M229.234 63.864C227.858 62.5889 227.171 61.0119 227.171 59.1341C227.171 57.2563 227.859 55.6084 229.234 54.3321C230.609 53.057 232.382 52.4183 234.554 52.4183C236.726 52.4183 238.427 53.057 239.803 54.3321C241.178 55.6084 241.865 57.2098 241.865 59.1341C241.865 61.0583 241.177 62.5889 239.803 63.864C238.427 65.1403 236.677 65.7778 234.554 65.7778C232.431 65.7778 230.609 65.1403 229.234 63.864ZM240.706 69.9666V110.263H228.328V69.9666H240.706Z" fill="#262656"/>
<path d="M267.054 71.1221C269.177 69.9666 271.663 69.3894 274.51 69.3894C277.84 69.3894 280.855 70.2325 283.558 71.9176C286.259 73.6038 288.395 76.0099 289.964 79.1396C291.532 82.2693 292.317 85.9041 292.317 90.0441C292.317 94.1841 291.532 97.8318 289.964 100.985C288.395 104.139 286.26 106.57 283.558 108.279C280.855 109.988 277.839 110.843 274.51 110.843C271.71 110.843 269.237 110.266 267.09 109.11C264.943 107.955 263.266 106.462 262.06 104.632V129.475H249.682V69.9678H262.06V75.6732C263.266 73.7954 264.93 72.2787 267.054 71.1232V71.1221ZM277.152 82.7849C275.439 81.0279 273.327 80.1488 270.819 80.1488C268.31 80.1488 266.27 81.0407 264.558 82.8209C262.844 84.6023 261.987 87.0341 261.987 90.115C261.987 93.1959 262.844 95.6288 264.558 97.409C266.27 99.1905 268.358 100.081 270.819 100.081C273.279 100.081 275.379 99.1789 277.116 97.373C278.853 95.5672 279.722 93.125 279.722 90.043C279.722 86.9609 278.864 84.5431 277.152 82.7849Z" fill="#262656"/>
<path d="M316.203 71.1221C318.326 69.9666 320.811 69.3894 323.658 69.3894C326.989 69.3894 330.003 70.2325 332.706 71.9176C335.408 73.6038 337.544 76.0099 339.113 79.1396C340.681 82.2693 341.465 85.9041 341.465 90.0441C341.465 94.1841 340.681 97.8318 339.113 100.985C337.544 104.139 335.409 106.57 332.706 108.279C330.003 109.988 326.988 110.843 323.658 110.843C320.859 110.843 318.386 110.266 316.239 109.11C314.092 107.955 312.414 106.462 311.208 104.632V129.475H298.83V69.9678H311.208V75.6732C312.414 73.7954 314.079 72.2787 316.203 71.1232V71.1221ZM326.301 82.7849C324.587 81.0279 322.476 80.1488 319.967 80.1488C317.459 80.1488 315.419 81.0407 313.706 82.8209C311.993 84.6023 311.136 87.0341 311.136 90.115C311.136 93.1959 311.993 95.6288 313.706 97.409C315.419 99.1905 317.507 100.081 319.967 100.081C322.428 100.081 324.528 99.1789 326.265 97.373C328.001 95.5672 328.871 93.125 328.871 90.043C328.871 86.9609 328.013 84.5431 326.301 82.7849Z" fill="#262656"/>
<path d="M360.357 56.8231V110.263H347.979V56.8231H360.357Z" fill="#262656"/>
<path d="M407.191 93.0763H379.178C379.37 95.58 380.179 97.4938 381.603 98.8177C383.025 100.143 384.776 100.804 386.851 100.804C389.939 100.804 392.087 99.504 393.294 96.9039H406.468C405.792 99.5516 404.573 101.936 402.813 104.053C401.051 106.172 398.843 107.833 396.19 109.036C393.535 110.24 390.568 110.842 387.286 110.842C383.329 110.842 379.805 110 376.718 108.314C373.629 106.629 371.217 104.222 369.479 101.092C367.743 97.9618 366.873 94.3026 366.873 90.115C366.873 85.9274 367.73 82.2681 369.443 79.1385C371.156 76.0099 373.557 73.6026 376.646 71.9164C379.734 70.2314 383.281 69.3883 387.286 69.3883C391.292 69.3883 394.67 70.207 397.71 71.8432C400.75 73.4807 403.126 75.8149 404.839 78.8481C406.552 81.8814 407.41 85.4199 407.41 89.4635C407.41 90.619 407.337 91.8232 407.192 93.0739L407.191 93.0763ZM394.741 86.2154C394.741 84.0972 394.017 82.4121 392.569 81.1603C391.121 79.9084 389.312 79.2825 387.14 79.2825C384.968 79.2825 383.315 79.8852 381.891 81.0883C380.468 82.2925 379.586 84.0019 379.249 86.2154H394.739H394.741Z" fill="#262656"/>
<path d="M436.434 99.792V110.263H430.137C425.648 110.263 422.149 109.168 419.641 106.978C417.131 104.788 415.876 101.213 415.876 96.2536V80.222H410.954V69.9666H415.876V60.1456H428.254V69.9666H436.362V80.222H428.254V96.3987C428.254 97.603 428.544 98.4693 429.123 98.9989C429.702 99.5296 430.666 99.7932 432.019 99.7932H436.434V99.792Z" fill="#262656"/>
<path d="M460.576 69.9666L453.709 110.263H441.331L448.198 69.9666H460.576Z" fill="#262656"/>
<path d="M464.555 79.1385C466.123 76.01 468.258 73.6026 470.962 71.9164C473.663 70.2314 476.68 69.3883 480.01 69.3883C482.662 69.3883 485.088 69.9422 487.285 71.0489C489.48 72.1568 491.205 73.6491 492.46 75.5269V56.8231H504.838V110.263H492.46V104.486C491.301 106.413 489.647 107.952 487.501 109.108C485.353 110.263 482.856 110.841 480.01 110.841C476.679 110.841 473.663 109.986 470.962 108.276C468.259 106.568 466.123 104.136 464.555 100.982C462.986 97.8294 462.203 94.183 462.203 90.0418C462.203 85.9007 462.986 82.267 464.555 79.1373V79.1385ZM489.89 82.8209C488.176 81.0407 486.089 80.1488 483.628 80.1488C481.168 80.1488 479.079 81.0279 477.367 82.7849C475.654 84.5431 474.797 86.9621 474.797 90.043C474.797 93.1239 475.654 95.5672 477.367 97.3731C479.079 99.1789 481.168 100.081 483.628 100.081C486.089 100.081 488.176 99.1905 489.89 97.4091C491.602 95.6288 492.46 93.1971 492.46 90.115C492.46 87.0329 491.602 84.6023 489.89 82.8209Z" fill="#262656"/>
<path d="M551.669 93.0763H523.656C523.848 95.58 524.657 97.4938 526.081 98.8177C527.503 100.143 529.254 100.804 531.329 100.804C534.417 100.804 536.565 99.504 537.772 96.9039H550.946C550.27 99.5516 549.051 101.936 547.291 104.053C545.529 106.172 543.321 107.833 540.668 109.036C538.013 110.24 535.046 110.842 531.764 110.842C527.807 110.842 524.283 110 521.196 108.314C518.107 106.629 515.695 104.222 513.958 101.092C512.221 97.9618 511.351 94.3026 511.351 90.115C511.351 85.9274 512.208 82.2681 513.921 79.1385C515.634 76.0099 518.035 73.6026 521.124 71.9164C524.212 70.2314 527.759 69.3883 531.764 69.3883C535.77 69.3883 539.148 70.207 542.188 71.8432C545.228 73.4807 547.604 75.8149 549.318 78.8481C551.03 81.8814 551.888 85.4199 551.888 89.4635C551.888 90.619 551.816 91.8232 551.67 93.0739L551.669 93.0763ZM539.219 86.2154C539.219 84.0972 538.495 82.4121 537.047 81.1603C535.599 79.9084 533.79 79.2825 531.618 79.2825C529.446 79.2825 527.793 79.8852 526.369 81.0883C524.946 82.2925 524.065 84.0019 523.727 86.2154H539.218H539.219Z" fill="#262656"/>
<path d="M455.59 65.729C459.64 65.729 462.923 62.7395 462.923 59.0516C462.923 55.3638 459.64 52.3742 455.59 52.3742C451.54 52.3742 448.257 55.3638 448.257 59.0516C448.257 62.7395 451.54 65.729 455.59 65.729Z" fill="#E996AE"/>
</g>
<defs>
<clipPath id="clip0_202_651">
<rect width="604" height="180" fill="white"/>
</clipPath>
</defs>
</svg>
